<?xml version="1.0" encoding="UTF-8"?>
<svg version="1.1" xmlns="http://www.w3.org/2000/svg" width="512" height="512">
<!-- <path d="M0 0 C1.47083629 -0.00231183 2.94167142 -0.00549314 4.4125042 -0.00945449 C8.40445731 -0.01771212 12.39631335 -0.01371894 16.38826656 -0.00748205 C20.71280981 -0.00292109 25.0373374 -0.00995923 29.36187744 -0.01544189 C37.81401586 -0.02429895 46.26611861 -0.0224304 54.71825838 -0.01661661 C61.59226554 -0.01208554 68.46626276 -0.01149345 75.340271 -0.01366425 C76.81213279 -0.01412394 76.81213279 -0.01412394 78.31372917 -0.01459293 C80.30758492 -0.01523243 82.30144068 -0.01588086 84.29529643 -0.01653811 C102.95763661 -0.0222306 121.61995709 -0.01570051 140.28229403 -0.00493738 C156.26844677 0.00399714 172.25457045 0.0024448 188.24072266 -0.0067749 C206.83983144 -0.01749667 225.43892299 -0.02168138 244.03803444 -0.01555037 C246.02423731 -0.01491333 248.01044019 -0.01428459 249.99664307 -0.01366425 C250.97369512 -0.01335569 251.95074718 -0.01304714 252.95740688 -0.01272924 C259.81696608 -0.01100802 266.67651428 -0.01390502 273.53607178 -0.01862335 C281.9044257 -0.02425341 290.27274215 -0.02267128 298.64109182 -0.01206186 C302.90436711 -0.00683363 307.16758008 -0.00469937 311.4308548 -0.01136017 C315.34412461 -0.01738131 319.25727516 -0.01394454 323.17053437 -0.00340506 C324.57544471 -0.00119686 325.98036543 -0.00224812 327.38526893 -0.00715664 C352.18863571 -0.08707199 373.87014389 4.41675434 392.46142578 22.04693604 C409.51195379 39.09746405 415.83892096 59.56257824 415.93594384 83.3414225 C415.93162205 84.71627831 415.92710883 86.09113353 415.92242432 87.46598816 C415.92473397 88.96040945 415.92791386 90.4548296 415.93187881 91.94924742 C415.94016624 96.02024846 415.93612931 100.09115477 415.92990637 104.16215599 C415.92535786 108.56646902 415.9323775 112.97076642 415.93786621 117.37507629 C415.94673659 125.98938296 415.94484866 134.60365467 415.93904093 143.21796267 C415.93451486 150.22268422 415.93391562 157.22739601 415.93608856 164.23211861 C415.93639503 165.23099589 415.93670149 166.22987317 415.93701725 167.25901945 C415.93765673 169.28855328 415.93830516 171.3180871 415.93896243 173.34762091 C415.9446589 192.3570652 415.93811871 211.36649016 415.9273617 230.37593127 C415.91842819 246.66691063 415.91997791 262.95786148 415.92919922 279.24884033 C415.93991629 298.19106931 415.9441082 317.13328136 415.93797469 336.07551295 C415.93733763 338.09767536 415.93670889 340.11983778 415.93608856 342.1420002 C415.93578001 343.13680331 415.93547146 344.13160641 415.93515356 345.15655507 C415.93343083 352.14776447 415.93633264 359.13896309 415.94104767 366.13017082 C415.94667255 374.65748887 415.94510642 383.18477012 415.93448618 391.71208399 C415.92925084 396.05812617 415.92713603 400.40410713 415.93378448 404.75014877 C415.93979069 408.73683305 415.9363927 412.72339998 415.92582938 416.71007378 C415.92361497 418.14397477 415.92468694 419.5778859 415.92958096 421.01178025 C416.01019967 446.61800711 409.8133385 466.79186761 391.66845703 485.25396729 C391.05486328 485.88045166 390.44126953 486.50693604 389.80908203 487.15240479 C372.86616073 503.15405268 351.32002499 506.41437846 328.9307251 506.38768005 C327.43904429 506.38955048 325.94736397 506.39185211 324.45568442 506.39454538 C320.37374119 506.40064109 316.29181851 506.40053242 312.20987177 506.399351 C307.80073896 506.39914643 303.39161266 506.40467112 298.98248291 506.40940857 C290.3505945 506.4177034 281.71871293 506.42046288 273.08682087 506.42102095 C266.06817165 506.42149665 259.04952467 506.42355412 252.03087616 506.42672157 C232.11771669 506.43552488 212.20456261 506.44014144 192.29140118 506.4393911 C191.21861281 506.43935114 190.14582445 506.43931119 189.04052734 506.43927002 C187.96642435 506.43922914 186.89232135 506.43918826 185.78566977 506.43914614 C168.38065925 506.43873974 150.97567037 506.44830863 133.5706661 506.46240839 C115.6856106 506.47678235 97.80056564 506.48367801 79.91550422 506.48281461 C69.87992167 506.482483 59.84436182 506.48521441 49.80878448 506.49599266 C41.2641435 506.50511107 32.71953549 506.50726189 24.17489174 506.50048324 C19.81887242 506.49722484 15.46291633 506.49713673 11.10690308 506.50583649 C7.11209708 506.51373251 3.11740411 506.5122386 -0.87739924 506.50355235 C-2.31544134 506.50202417 -3.75349201 506.50380755 -5.191524 506.50941243 C-29.10159056 506.59636362 -49.42869067 501.24201139 -67.12451172 484.46099854 C-84.82446223 466.76104802 -90.498405 445.47542384 -90.59902978 421.01770401 C-90.5947086 419.66514273 -90.59019541 418.31258204 -90.58551025 416.96002197 C-90.58782135 415.48108645 -90.59100218 414.00215208 -90.59496474 412.52322006 C-90.60323242 408.50427411 -90.59922448 404.48542442 -90.59299231 400.46647835 C-90.58843557 396.11466988 -90.59546743 391.76287706 -90.60095215 387.41107178 C-90.60981364 378.90365228 -90.60793866 370.3962682 -90.60212687 361.88884735 C-90.59759756 354.9704713 -90.59700295 348.05210514 -90.5991745 341.13372803 C-90.5996342 339.65290383 -90.5996342 339.65290383 -90.60010318 338.14216399 C-90.60074268 336.13622697 -90.60139111 334.13028995 -90.60204837 332.12435293 C-90.60774216 313.34473184 -90.60120872 294.56513033 -90.59044763 275.78551245 C-90.58151299 259.69556051 -90.5830653 243.60563745 -90.59228516 227.51568604 C-90.60300461 208.80013174 -90.60719292 190.08459457 -90.60106063 171.36903763 C-90.60042358 169.3707606 -90.59979483 167.37248357 -90.5991745 165.37420654 C-90.59871167 163.89968258 -90.59871167 163.89968258 -90.5982395 162.39537024 C-90.59651758 155.49076915 -90.59941677 148.58617899 -90.60413361 141.68157959 C-90.60976108 133.25937414 -90.60818688 124.83720595 -90.59757212 116.41500473 C-90.59234045 112.12350669 -90.5902156 107.83207061 -90.59687042 103.54057312 C-90.6028843 99.60264365 -90.59946636 95.66483283 -90.58891532 91.72691393 C-90.58670411 90.31189734 -90.58776541 88.89687046 -90.59266689 87.48186064 C-90.67073704 63.04532862 -85.87886881 41.74659027 -68.53857422 23.46099854 C-49.28206163 4.20448594 -26.30179046 -0.09189445 0 0 Z " fill="#F3F3F5" transform="translate(93.33154296875,2.74603271484375)"/> -->
<path d="M0 0 C3.1267752 1.24412414 6.18047986 2.59271504 9.23681641 4.00097656 C11.51623515 5.0112859 13.79619686 6.02037096 16.07666016 7.02832031 C17.22763184 7.54378418 18.37860352 8.05924805 19.56445312 8.59033203 C26.08454335 11.46348374 32.69964625 14.11285886 39.30786133 16.77587891 C52.75092154 22.30023286 52.75092154 22.30023286 56.2265625 29.07226562 C57.83595122 33.08952911 58.57488646 37.25948487 59.36181641 41.50097656 C59.7771426 43.61582359 60.19389561 45.73039074 60.61181641 47.84472656 C60.83611328 48.99457031 61.06041016 50.14441406 61.29150391 51.32910156 C62.13405884 55.55056235 63.02237572 59.76063244 63.92431641 63.96972656 C64.08465866 64.71848053 64.24500092 65.4672345 64.41020203 66.23867798 C65.05352755 69.23932724 65.69806904 72.2397137 66.34341431 75.2399292 C66.79544896 77.34477507 67.24489917 79.45015812 67.69384766 81.55566406 C67.95528564 82.77495605 68.21672363 83.99424805 68.48608398 85.25048828 C69.04931641 88.12597656 69.04931641 88.12597656 69.04931641 90.12597656 C112.60931641 90.12597656 156.16931641 90.12597656 201.04931641 90.12597656 C200.38931641 95.07597656 199.72931641 100.02597656 199.04931641 105.12597656 C197.46477873 130.01795791 204.21835694 152.16629014 220.52587891 171.39941406 C239.07515091 191.44181632 261.68556105 197.3640956 288.04931641 199.12597656 C287.93249512 199.76124268 287.81567383 200.39650879 287.6953125 201.05102539 C286.73416101 206.30434554 285.80037418 211.56094851 284.90087891 216.82519531 C284.49233575 219.15467696 284.0834781 221.48410348 283.67431641 223.81347656 C283.38041016 225.57014648 283.38041016 225.57014648 283.08056641 227.36230469 C281.71708585 235.01246618 280.38585092 241.95626878 274.54931641 247.50097656 C269.70240164 250.65147116 266.27630957 251.41851038 260.48492432 251.3934021 C259.7194433 251.39793321 258.95396228 251.40246433 258.16528487 251.40713274 C255.59824717 251.41980088 253.03142098 251.41815482 250.46435547 251.41650391 C248.62454963 251.42248774 246.7847463 251.42929295 244.94494629 251.43685913 C239.94479207 251.45454327 234.94470628 251.45921559 229.94452381 251.4604907 C225.76971836 251.46238944 221.59492885 251.46974687 217.42012954 251.47683489 C207.56832684 251.49312639 197.71656071 251.49800323 187.86474609 251.49658203 C177.70595515 251.49538107 167.54737683 251.51647216 157.38863969 251.54806936 C148.66492917 251.57423512 139.94128805 251.58494917 131.2175386 251.58367121 C126.00819285 251.58316157 120.79903594 251.58884555 115.58972931 251.61002731 C110.68785955 251.62941411 105.7863586 251.62953106 100.88447571 251.61499405 C99.0882132 251.61290526 97.29192759 251.61761106 95.49570465 251.62971497 C93.03725341 251.64520438 90.58006801 251.6358358 88.12164307 251.62045288 C87.416176 251.63074001 86.71070893 251.64102713 85.98386407 251.65162599 C79.5147434 251.56259895 74.37182026 249.29826873 69.69384766 244.92285156 C67.49678122 241.18627302 66.63774478 237.59103432 65.73681641 233.37597656 C65.5315332 232.46678467 65.32625 231.55759277 65.11474609 230.62084961 C64.40836228 227.45954795 63.72668263 224.29361917 63.04931641 221.12597656 C62.79811035 219.95953613 62.5469043 218.7930957 62.28808594 217.59130859 C60.83890606 210.84592203 59.40946575 204.09656443 57.99072266 197.34472656 C55.92984702 187.53754612 53.83681781 177.73734508 51.73681641 167.93847656 C51.54928802 167.06296143 51.36175964 166.18744629 51.16854858 165.28540039 C47.97491725 150.3800883 44.74057673 135.48378813 41.49032593 120.59072876 C39.04739027 109.39474948 36.6318474 98.19360037 34.26416016 86.98144531 C34.0355983 85.90043045 33.80703644 84.81941559 33.57154846 83.7056427 C32.4670903 78.47994192 31.36651178 73.25347317 30.2722168 68.02563477 C29.87512485 66.14238904 29.47791436 64.25916829 29.08056641 62.37597656 C28.90391953 61.525009 28.72727264 60.67404144 28.54527283 59.79728699 C28.2168054 58.24676614 27.87398043 56.69918341 27.5136261 55.15576172 C27.10726474 53.3793046 26.77991989 51.58515026 26.46606445 49.79003906 C24.22722682 45.58011382 20.69402224 44.79844567 16.35009766 43.25097656 C15.48168747 42.91855957 14.61327728 42.58614258 13.71855164 42.24365234 C10.94061111 41.18272564 8.15276183 40.15215499 5.36181641 39.12597656 C2.58998168 38.09706534 -0.17864437 37.06146485 -2.94136047 36.00830078 C-4.65876896 35.3544989 -6.38156906 34.71462523 -8.11027527 34.09130859 C-14.77634518 31.56784851 -19.86584179 28.21961278 -23.88818359 22.25097656 C-25.42935775 17.71811141 -25.92062161 13.69683378 -24.22412109 9.20019531 C-18.97439745 -0.76574347 -10.39340581 -3.07863584 0 0 Z " fill="#70A3C2" transform="translate(83.95068359375,89.8740234375)"/>
<path d="M0 0 C1.81081055 -0.01160156 1.81081055 -0.01160156 3.65820312 -0.0234375 C26.65441228 0.02631092 46.10742043 8.80140132 62.6640625 24.60546875 C78.79301712 41.50841346 88.05702614 63.78011082 87.71582031 87.22338867 C87.2056868 98.86050581 84.77281055 110.95512446 79.1875 121.25 C78.74535156 122.12785156 78.30320312 123.00570312 77.84765625 123.91015625 C66.36619208 146.05080466 47.69891792 160.52457219 24.1875 168.25 C1.18410586 174.4337081 -23.12704023 169.72315184 -43.55078125 158.31640625 C-64.24345825 145.20691387 -76.82442444 125.66260444 -82.8125 102.25 C-87.67546071 79.65877747 -81.76029646 56.54472775 -69.8125 37.25 C-56.87077733 18.9894254 -38.0649397 5.81643801 -16.20288086 0.62060547 C-10.84265089 -0.21044643 -5.41034715 -0.03433324 0 0 Z " fill="#F8BF3F" transform="translate(365.8125,118.75)"/>
<path d="M0 0 C5.4007888 2.44430066 9.21725152 7.03622643 13.2578125 11.24609375 C14.49821289 12.51356445 14.49821289 12.51356445 15.76367188 13.80664062 C17.79195503 15.8818205 19.81026928 17.96576719 21.8203125 20.05859375 C24.90122683 18.69313589 26.9306743 17.1596957 29.24609375 14.72265625 C29.87837891 14.07039062 30.51066406 13.418125 31.16210938 12.74609375 C32.46641819 11.38102922 33.76853769 10.01386913 35.06835938 8.64453125 C39.60652762 3.9730227 43.87704417 -0.15391067 50.48046875 -1.47265625 C56.08867813 -1.39970393 59.44927657 -0.79208076 63.8203125 3.05859375 C67.40493699 7.03074521 68.95951527 10.02512758 69.0703125 15.37109375 C69.09609375 16.10972656 69.121875 16.84835938 69.1484375 17.609375 C68.09793862 25.45059877 62.0194676 30.20941316 56.6328125 35.43359375 C55.78783203 36.26503906 54.94285156 37.09648437 54.07226562 37.953125 C51.99492413 39.99525731 49.91089442 42.03003275 47.8203125 44.05859375 C49.26162871 47.38631128 51.05301005 49.49318559 53.6640625 51.9921875 C54.79134766 53.08950195 54.79134766 53.08950195 55.94140625 54.20898438 C57.52539344 55.7318489 59.11132875 57.25268975 60.69921875 58.77148438 C61.82650391 59.87073242 61.82650391 59.87073242 62.9765625 60.9921875 C63.66556641 61.65275146 64.35457031 62.31331543 65.06445312 62.99389648 C68.67941336 67.24469163 69.21352948 71.45911737 69.0703125 76.84765625 C68.55397315 81.41403238 66.72383033 84.20262949 63.4453125 87.30859375 C58.91308535 90.33007852 55.46856886 91.27160886 49.98046875 91.51953125 C42.72497316 89.97134232 37.38901587 82.85479815 32.4453125 77.80859375 C31.61386719 76.968125 30.78242188 76.12765625 29.92578125 75.26171875 C27.88599703 73.19848873 25.85104964 71.13072252 23.8203125 69.05859375 C18.40707253 73.53547306 13.50401097 78.33388164 8.71484375 83.46679688 C4.13443329 88.19693019 0.00297754 90.66076062 -6.6796875 91.49609375 C-12.30151809 90.79336493 -15.77897597 88.6067486 -19.5546875 84.43359375 C-21.92443873 80.97011118 -22.38370282 78.98810892 -22.4921875 74.80859375 C-22.52957031 73.8753125 -22.56695312 72.94203125 -22.60546875 71.98046875 C-21.50335173 64.4173171 -14.62591438 59.26779584 -9.4296875 54.18359375 C-8.63691406 53.39984375 -7.84414063 52.61609375 -7.02734375 51.80859375 C-5.08260603 49.88728661 -3.13333997 47.97082828 -1.1796875 46.05859375 C-2.62312452 42.73015414 -4.42307678 40.60263385 -7.0234375 38.08984375 C-7.77496094 37.35378906 -8.52648437 36.61773437 -9.30078125 35.859375 C-10.08582031 35.10011719 -10.87085938 34.34085938 -11.6796875 33.55859375 C-13.2364281 32.05297764 -14.78870508 30.54272919 -16.3359375 29.02734375 C-17.02494141 28.36154297 -17.71394531 27.69574219 -18.42382812 27.00976562 C-22.480823 22.50149212 -22.55841153 18.55442886 -22.42578125 12.6796875 C-21.96322973 7.75314669 -19.6973373 5.40730531 -16.1171875 2.30859375 C-10.83278113 -1.73903666 -6.25874799 -1.85301998 0 0 Z " fill="#FEFEFD" transform="translate(344.1796875,158.94140625)"/>
<path d="M0 0 C6.74929758 4.66389817 10.04871809 10.39254312 12.25390625 18.2109375 C13.3367538 27.09028741 12.02945923 34.52187108 7.0234375 42.11328125 C2.43746124 47.74868 -2.63577004 50.50749626 -9.43359375 52.7734375 C-19.83999808 53.72070447 -27.11999743 52.56641814 -35.4609375 46.234375 C-41.26711991 41.05422917 -43.91495259 35.03510216 -44.84765625 27.37109375 C-45.22977916 18.10964106 -43.65770367 11.39232404 -37.34375 4.48828125 C-26.3332019 -5.88233756 -13.30500395 -7.54717934 0 0 Z " fill="#658FBA" transform="translate(215.43359375,370.2265625)"/>
<path d="M0 0 C9.00639526 4.71842399 14.01275073 10.91325219 17.1875 20.4375 C17.99679311 29.8969424 17.3630637 37.99889897 11.45703125 45.69140625 C6.20489307 51.38384344 0.83108592 54.87746954 -6.921875 55.8125 C-16.63640281 56.17736489 -25.03196432 53.98242187 -32.27734375 47.28515625 C-37.81262125 40.6231047 -40.18383956 32.93533883 -40.09375 24.421875 C-39.39755058 17.03442556 -36.15920052 10.55173528 -30.8125 5.4375 C-21.35534503 -1.00367126 -11.2711983 -4.60289774 0 0 Z " fill="#658FBA" transform="translate(328.8125,367.5625)"/>
</svg>
